<!DOCTYPE svg PUBLIC "-//W3C//DTD SVG 1.1//EN" "http://www.w3.org/Graphics/SVG/1.1/DTD/svg11.dtd">
<!-- Uploaded to: SVG Repo, www.svgrepo.com, Transformed by: SVG Repo Mixer Tools -->
<svg fill="#1CAF57" height="800px" width="800px" version="1.1" id="Capa_1" xmlns="http://www.w3.org/2000/svg" xmlns:xlink="http://www.w3.org/1999/xlink" viewBox="0 0 487.582 487.582" xml:space="preserve" stroke="#1CAF57">
<g id="SVGRepo_bgCarrier" stroke-width="0"/>
<g id="SVGRepo_tracerCarrier" stroke-linecap="round" stroke-linejoin="round"/>
<g id="SVGRepo_iconCarrier"> <g id="XMLID_202_"> <path id="XMLID_206_" d="M323.279,118.214c-32.65,0-61.076,17.998-75.934,44.59c-14.92-26.592-43.311-44.59-75.963-44.59 c-48.06,0-87.008,38.957-87.008,87.009c0,99.776,162.971,200.896,162.971,200.896s162.943-100.644,162.943-200.896 C410.289,157.171,371.322,118.214,323.279,118.214z"/> <path id="XMLID_203_" d="M243.791,0.001C109.15,0.001,0,109.149,0,243.79s109.15,243.791,243.791,243.791 s243.791-109.15,243.791-243.791S378.432,0.001,243.791,0.001z M243.791,455.075c-116.498,0-211.281-94.777-211.281-211.285 c0-116.507,94.783-211.284,211.281-211.284c116.5,0,211.287,94.777,211.287,211.284 C455.078,360.298,360.291,455.075,243.791,455.075z"/> </g> </g>
</svg>