<!DOCTYPE svg PUBLIC "-//W3C//DTD SVG 1.1//EN" "http://www.w3.org/Graphics/SVG/1.1/DTD/svg11.dtd">
<!-- Uploaded to: SVG Repo, www.svgrepo.com, Transformed by: SVG Repo Mixer Tools -->
<svg fill="#1caf57" version="1.1" id="Capa_1" xmlns="http://www.w3.org/2000/svg" xmlns:xlink="http://www.w3.org/1999/xlink" width="800px" height="800px" viewBox="0 0 35.668 35.668" xml:space="preserve">
<g id="SVGRepo_bgCarrier" stroke-width="0"/>
<g id="SVGRepo_tracerCarrier" stroke-linecap="round" stroke-linejoin="round"/>
<g id="SVGRepo_iconCarrier"> <g> <path d="M33.168,5.667H2.5c-1.381,0-2.5-1.119-2.5-2.5s1.119-2.5,2.5-2.5h30.668c1.381,0,2.5,1.119,2.5,2.5 S34.549,5.667,33.168,5.667z M18.667,10.501c0-1.381-1.119-2.5-2.5-2.5H2.5c-1.381,0-2.5,1.119-2.5,2.5s1.119,2.5,2.5,2.5h13.667 C17.548,13.001,18.667,11.882,18.667,10.501z M35.668,17.833c0-1.381-1.119-2.5-2.5-2.5H2.5c-1.381,0-2.5,1.119-2.5,2.5 s1.119,2.5,2.5,2.5h30.668C34.549,20.333,35.668,19.214,35.668,17.833z M18.667,25.167c0-1.381-1.119-2.5-2.5-2.5H2.5 c-1.381,0-2.5,1.119-2.5,2.5s1.119,2.5,2.5,2.5h13.667C17.548,27.667,18.667,26.548,18.667,25.167z M35.668,32.501 c0-1.381-1.119-2.5-2.5-2.5H2.5c-1.381,0-2.5,1.119-2.5,2.5s1.119,2.5,2.5,2.5h30.668C34.549,35.001,35.668,33.882,35.668,32.501z"/> </g> </g>
</svg>